<svg width="377" height="32" viewBox="0 0 377 32" fill="none" xmlns="http://www.w3.org/2000/svg">
<path d="M25.6664 12.9587L22.9451 3.7175C22.8841 3.51046 22.7578 3.3287 22.585 3.19937C22.4122 3.07005 22.2022 3.00011 21.9864 3H10.0139C9.79803 3.00011 9.58802 3.07005 9.41522 3.19937C9.24241 3.3287 9.11609 3.51046 9.05511 3.7175L6.33386 12.9587C5.90691 14.3752 5.88457 15.8828 6.26935 17.3113C6.65414 18.7397 7.43072 20.0322 8.51136 21.0425C10.289 22.7095 12.573 23.7342 15.0001 23.9538V29H11.0001C10.7349 29 10.4805 29.1054 10.293 29.2929C10.1055 29.4804 10.0001 29.7348 10.0001 30C10.0001 30.2652 10.1055 30.5196 10.293 30.7071C10.4805 30.8946 10.7349 31 11.0001 31H21.0001C21.2653 31 21.5197 30.8946 21.7072 30.7071C21.8948 30.5196 22.0001 30.2652 22.0001 30C22.0001 29.7348 21.8948 29.4804 21.7072 29.2929C21.5197 29.1054 21.2653 29 21.0001 29H17.0001V23.9538C19.4272 23.7342 21.7112 22.7095 23.4889 21.0425C24.5695 20.0322 25.3461 18.7397 25.7309 17.3113C26.1157 15.8828 26.0933 14.3752 25.6664 12.9587ZM10.7614 5H21.2389L23.7501 13.5238C23.7614 13.5613 23.7714 13.5987 23.7814 13.6362C21.1039 14.5962 18.0889 13.4362 16.4526 12.6075C13.3039 11.0138 10.8039 10.8113 8.96011 11.1163L10.7614 5ZM22.1251 19.5812C20.4646 21.1361 18.2749 22.0012 16.0001 22.0012C13.7253 22.0012 11.5356 21.1361 9.87511 19.5812C9.06646 18.8234 8.48578 17.8547 8.19864 16.7843C7.91149 15.7139 7.92932 14.5845 8.25011 13.5238L8.30636 13.3337C9.80636 12.8263 12.1901 12.6912 15.5476 14.3925C16.9414 15.0988 19.1926 15.9987 21.6014 15.9987C22.4064 16.0027 23.2081 15.8933 23.9826 15.6737C23.8806 17.1645 23.2167 18.561 22.1251 19.5812Z" fill="#FFFEF7"/>
<path d="M41.5852 22.5V9.40909H43.1705V21.0938H49.2557V22.5H41.5852ZM55.6222 22.7045C54.6761 22.7045 53.8601 22.4957 53.174 22.0781C52.4922 21.6562 51.9659 21.0682 51.5952 20.3139C51.2287 19.5554 51.0455 18.6733 51.0455 17.6676C51.0455 16.6619 51.2287 15.7756 51.5952 15.0085C51.9659 14.2372 52.4815 13.6364 53.142 13.206C53.8068 12.7713 54.5824 12.554 55.4688 12.554C55.9801 12.554 56.4851 12.6392 56.9837 12.8097C57.4822 12.9801 57.9361 13.2571 58.3452 13.6406C58.7543 14.0199 59.0803 14.5227 59.3232 15.1491C59.5661 15.7756 59.6875 16.5469 59.6875 17.4631V18.1023H52.1193V16.7983H58.1534C58.1534 16.2443 58.0426 15.75 57.821 15.3153C57.6037 14.8807 57.2926 14.5376 56.8878 14.2862C56.4872 14.0348 56.0142 13.9091 55.4688 13.9091C54.8679 13.9091 54.348 14.0582 53.9091 14.3565C53.4744 14.6506 53.1399 15.0341 52.9055 15.5071C52.6712 15.9801 52.554 16.4872 52.554 17.0284V17.8977C52.554 18.6392 52.6818 19.2678 52.9375 19.7834C53.1974 20.2947 53.5575 20.6847 54.0178 20.9531C54.478 21.2173 55.0128 21.3494 55.6222 21.3494C56.0185 21.3494 56.3764 21.294 56.696 21.1832C57.0199 21.0682 57.299 20.8977 57.5334 20.6719C57.7678 20.4418 57.9489 20.1562 58.0767 19.8153L59.5341 20.2244C59.3807 20.7188 59.1229 21.1534 58.7607 21.5284C58.3984 21.8991 57.951 22.1889 57.4183 22.3977C56.8857 22.6023 56.2869 22.7045 55.6222 22.7045ZM66.2521 12.6818V13.9602H61.1641V12.6818H66.2521ZM62.647 10.3295H64.1555V19.6875C64.1555 20.1136 64.2173 20.4332 64.3409 20.6463C64.4688 20.8551 64.6307 20.9957 64.8267 21.0682C65.027 21.1364 65.2379 21.1705 65.4595 21.1705C65.6257 21.1705 65.7621 21.1619 65.8686 21.1449C65.9751 21.1236 66.0604 21.1065 66.1243 21.0938L66.4311 22.4489C66.3288 22.4872 66.1861 22.5256 66.0028 22.5639C65.8196 22.6065 65.5874 22.6278 65.3061 22.6278C64.88 22.6278 64.4624 22.5362 64.0533 22.353C63.6484 22.1697 63.3118 21.8906 63.0433 21.5156C62.7791 21.1406 62.647 20.6676 62.647 20.0966V10.3295ZM71.9474 11.3523L69.9531 8.38636H71.7173L73.277 11.3523H71.9474ZM84.4231 14.8807L83.068 15.2642C82.9828 15.0384 82.8571 14.8189 82.6909 14.6058C82.5289 14.3885 82.3074 14.2095 82.0261 14.0689C81.7449 13.9283 81.3848 13.858 80.9458 13.858C80.345 13.858 79.8443 13.9964 79.4437 14.2734C79.0474 14.5462 78.8493 14.8935 78.8493 15.3153C78.8493 15.6903 78.9856 15.9865 79.2583 16.2038C79.5311 16.4212 79.9572 16.6023 80.5368 16.7472L81.9941 17.1051C82.872 17.3182 83.5261 17.6442 83.9565 18.0831C84.3869 18.5178 84.6021 19.0781 84.6021 19.7642C84.6021 20.3267 84.4402 20.8295 84.1163 21.2727C83.7967 21.7159 83.3493 22.0653 82.774 22.321C82.1987 22.5767 81.5297 22.7045 80.7669 22.7045C79.7654 22.7045 78.9366 22.4872 78.2804 22.0526C77.6241 21.6179 77.2086 20.983 77.0339 20.1477L78.4657 19.7898C78.6021 20.3182 78.8599 20.7145 79.2392 20.9787C79.6227 21.2429 80.1234 21.375 80.7413 21.375C81.4444 21.375 82.0027 21.2259 82.416 20.9276C82.8336 20.625 83.0424 20.2628 83.0424 19.8409C83.0424 19.5 82.9231 19.2145 82.6845 18.9844C82.4458 18.75 82.0794 18.5753 81.5851 18.4602L79.9487 18.0767C79.0495 17.8636 78.389 17.5334 77.9672 17.0859C77.5495 16.6342 77.3407 16.0696 77.3407 15.392C77.3407 14.8381 77.4963 14.348 77.8074 13.9219C78.1227 13.4957 78.551 13.1612 79.0922 12.9183C79.6376 12.6754 80.2555 12.554 80.9458 12.554C81.9174 12.554 82.6802 12.767 83.2342 13.1932C83.7924 13.6193 84.1887 14.1818 84.4231 14.8807ZM95.6428 22.7045C94.8246 22.7045 94.1023 22.4979 93.4759 22.0845C92.8494 21.6669 92.3594 21.0788 92.0057 20.3203C91.652 19.5575 91.4751 18.6562 91.4751 17.6165C91.4751 16.5852 91.652 15.6903 92.0057 14.9318C92.3594 14.1733 92.8516 13.5874 93.4822 13.174C94.1129 12.7607 94.8416 12.554 95.6683 12.554C96.3075 12.554 96.8125 12.6605 97.1832 12.8736C97.5582 13.0824 97.8438 13.321 98.0398 13.5895C98.2401 13.8537 98.3956 14.071 98.5064 14.2415H98.6342V9.40909H100.143V22.5H98.6854V20.9915H98.5064C98.3956 21.1705 98.2379 21.3963 98.0334 21.669C97.8288 21.9375 97.5369 22.1783 97.1577 22.3913C96.7784 22.6001 96.2734 22.7045 95.6428 22.7045ZM95.8473 21.3494C96.4524 21.3494 96.9638 21.1918 97.3814 20.8764C97.799 20.5568 98.1165 20.1158 98.3338 19.5533C98.5511 18.9865 98.6598 18.3324 98.6598 17.5909C98.6598 16.858 98.5533 16.2166 98.3402 15.6669C98.1271 15.1129 97.8118 14.6825 97.3942 14.3757C96.9766 14.0646 96.4609 13.9091 95.8473 13.9091C95.2081 13.9091 94.6754 14.0732 94.2493 14.4013C93.8274 14.7251 93.5099 15.1662 93.2969 15.7244C93.0881 16.2784 92.9837 16.9006 92.9837 17.5909C92.9837 18.2898 93.0902 18.9247 93.3033 19.4957C93.5206 20.0625 93.8402 20.5142 94.2621 20.8509C94.6882 21.1832 95.2166 21.3494 95.8473 21.3494ZM103.115 22.5V12.6818H104.624V22.5H103.115ZM103.882 11.0455C103.588 11.0455 103.335 10.9453 103.121 10.745C102.913 10.5447 102.808 10.304 102.808 10.0227C102.808 9.74148 102.913 9.50071 103.121 9.30043C103.335 9.10014 103.588 9 103.882 9C104.176 9 104.428 9.10014 104.636 9.30043C104.849 9.50071 104.956 9.74148 104.956 10.0227C104.956 10.304 104.849 10.5447 104.636 10.745C104.428 10.9453 104.176 11.0455 103.882 11.0455ZM114.341 14.8807L112.986 15.2642C112.901 15.0384 112.775 14.8189 112.609 14.6058C112.447 14.3885 112.225 14.2095 111.944 14.0689C111.663 13.9283 111.303 13.858 110.864 13.858C110.263 13.858 109.762 13.9964 109.362 14.2734C108.965 14.5462 108.767 14.8935 108.767 15.3153C108.767 15.6903 108.904 15.9865 109.176 16.2038C109.449 16.4212 109.875 16.6023 110.455 16.7472L111.912 17.1051C112.79 17.3182 113.444 17.6442 113.874 18.0831C114.305 18.5178 114.52 19.0781 114.52 19.7642C114.52 20.3267 114.358 20.8295 114.034 21.2727C113.715 21.7159 113.267 22.0653 112.692 22.321C112.117 22.5767 111.448 22.7045 110.685 22.7045C109.683 22.7045 108.855 22.4872 108.198 22.0526C107.542 21.6179 107.127 20.983 106.952 20.1477L108.384 19.7898C108.52 20.3182 108.778 20.7145 109.157 20.9787C109.541 21.2429 110.041 21.375 110.659 21.375C111.362 21.375 111.921 21.2259 112.334 20.9276C112.752 20.625 112.96 20.2628 112.96 19.8409C112.96 19.5 112.841 19.2145 112.602 18.9844C112.364 18.75 111.997 18.5753 111.503 18.4602L109.867 18.0767C108.968 17.8636 108.307 17.5334 107.885 17.0859C107.468 16.6342 107.259 16.0696 107.259 15.392C107.259 14.8381 107.414 14.348 107.725 13.9219C108.041 13.4957 108.469 13.1612 109.01 12.9183C109.556 12.6754 110.173 12.554 110.864 12.554C111.835 12.554 112.598 12.767 113.152 13.1932C113.71 13.6193 114.107 14.1818 114.341 14.8807ZM120.779 22.7045C119.859 22.7045 119.066 22.4872 118.402 22.0526C117.737 21.6179 117.225 21.0192 116.868 20.2564C116.51 19.4936 116.331 18.6222 116.331 17.642C116.331 16.6449 116.514 15.7649 116.88 15.0021C117.251 14.2351 117.767 13.6364 118.427 13.206C119.092 12.7713 119.868 12.554 120.754 12.554C121.444 12.554 122.066 12.6818 122.62 12.9375C123.174 13.1932 123.628 13.5511 123.982 14.0114C124.336 14.4716 124.555 15.0085 124.64 15.6222H123.132C123.017 15.1747 122.761 14.7784 122.365 14.4332C121.973 14.0838 121.444 13.9091 120.779 13.9091C120.191 13.9091 119.676 14.0625 119.233 14.3693C118.794 14.6719 118.451 15.1001 118.203 15.6541C117.961 16.2038 117.839 16.8494 117.839 17.5909C117.839 18.3494 117.958 19.0099 118.197 19.5724C118.44 20.1349 118.781 20.5717 119.22 20.8828C119.663 21.1939 120.183 21.3494 120.779 21.3494C121.172 21.3494 121.527 21.2812 121.847 21.1449C122.167 21.0085 122.437 20.8125 122.659 20.5568C122.88 20.3011 123.038 19.9943 123.132 19.6364H124.64C124.555 20.2159 124.344 20.7379 124.007 21.2024C123.675 21.6626 123.234 22.0291 122.684 22.3018C122.139 22.5703 121.504 22.7045 120.779 22.7045ZM130.834 22.7045C129.948 22.7045 129.17 22.4936 128.501 22.0717C127.836 21.6499 127.316 21.0597 126.941 20.3011C126.571 19.5426 126.385 18.6562 126.385 17.642C126.385 16.6193 126.571 15.7266 126.941 14.9638C127.316 14.201 127.836 13.6087 128.501 13.1868C129.17 12.7649 129.948 12.554 130.834 12.554C131.721 12.554 132.496 12.7649 133.161 13.1868C133.83 13.6087 134.35 14.201 134.721 14.9638C135.096 15.7266 135.283 16.6193 135.283 17.642C135.283 18.6562 135.096 19.5426 134.721 20.3011C134.35 21.0597 133.83 21.6499 133.161 22.0717C132.496 22.4936 131.721 22.7045 130.834 22.7045ZM130.834 21.3494C131.507 21.3494 132.061 21.1768 132.496 20.8317C132.931 20.4865 133.252 20.0327 133.461 19.4702C133.67 18.9077 133.775 18.2983 133.775 17.642C133.775 16.9858 133.67 16.3743 133.461 15.8075C133.252 15.2408 132.931 14.7827 132.496 14.4332C132.061 14.0838 131.507 13.9091 130.834 13.9091C130.161 13.9091 129.607 14.0838 129.172 14.4332C128.738 14.7827 128.416 15.2408 128.207 15.8075C127.998 16.3743 127.894 16.9858 127.894 17.642C127.894 18.2983 127.998 18.9077 128.207 19.4702C128.416 20.0327 128.738 20.4865 129.172 20.8317C129.607 21.1768 130.161 21.3494 130.834 21.3494ZM145.263 12.6818L141.632 22.5H140.098L136.467 12.6818H138.104L140.814 20.5057H140.916L143.626 12.6818H145.263ZM151.019 22.7045C150.073 22.7045 149.257 22.4957 148.57 22.0781C147.889 21.6562 147.362 21.0682 146.992 20.3139C146.625 19.5554 146.442 18.6733 146.442 17.6676C146.442 16.6619 146.625 15.7756 146.992 15.0085C147.362 14.2372 147.878 13.6364 148.539 13.206C149.203 12.7713 149.979 12.554 150.865 12.554C151.377 12.554 151.882 12.6392 152.38 12.8097C152.879 12.9801 153.333 13.2571 153.742 13.6406C154.151 14.0199 154.477 14.5227 154.72 15.1491C154.963 15.7756 155.084 16.5469 155.084 17.4631V18.1023H147.516V16.7983H153.55C153.55 16.2443 153.439 15.75 153.218 15.3153C153 14.8807 152.689 14.5376 152.284 14.2862C151.884 14.0348 151.411 13.9091 150.865 13.9091C150.264 13.9091 149.744 14.0582 149.306 14.3565C148.871 14.6506 148.536 15.0341 148.302 15.5071C148.068 15.9801 147.95 16.4872 147.95 17.0284V17.8977C147.95 18.6392 148.078 19.2678 148.334 19.7834C148.594 20.2947 148.954 20.6847 149.414 20.9531C149.874 21.2173 150.409 21.3494 151.019 21.3494C151.415 21.3494 151.773 21.294 152.093 21.1832C152.416 21.0682 152.695 20.8977 152.93 20.6719C153.164 20.4418 153.345 20.1562 153.473 19.8153L154.931 20.2244C154.777 20.7188 154.519 21.1534 154.157 21.5284C153.795 21.8991 153.347 22.1889 152.815 22.3977C152.282 22.6023 151.683 22.7045 151.019 22.7045ZM157.379 22.5V12.6818H158.836V14.1648H158.938C159.117 13.679 159.441 13.2848 159.91 12.9822C160.379 12.6797 160.907 12.5284 161.495 12.5284C161.606 12.5284 161.744 12.5305 161.911 12.5348C162.077 12.5391 162.203 12.5455 162.288 12.554V14.0881C162.237 14.0753 162.119 14.0561 161.936 14.0305C161.757 14.0007 161.568 13.9858 161.367 13.9858C160.89 13.9858 160.464 14.0859 160.089 14.2862C159.718 14.4822 159.424 14.755 159.207 15.1044C158.994 15.4496 158.887 15.8437 158.887 16.2869V22.5H157.379ZM171.056 22.7173C170.434 22.7173 169.891 22.6023 169.426 22.3722C168.962 22.1378 168.619 21.799 168.397 21.3558C168.175 20.9126 168.118 20.3693 168.224 19.7259C168.318 19.1719 168.501 18.7159 168.774 18.358C169.051 18 169.388 17.7166 169.784 17.5078C170.18 17.2947 170.611 17.1349 171.075 17.0284C171.54 16.9219 172.009 16.843 172.482 16.7919C173.078 16.7237 173.562 16.6662 173.933 16.6193C174.308 16.5724 174.589 16.5 174.776 16.402C174.964 16.2997 175.077 16.1335 175.115 15.9034V15.8587C175.205 15.3047 175.124 14.8743 174.872 14.5675C174.625 14.2564 174.195 14.1009 173.581 14.1009C172.942 14.1009 172.405 14.2415 171.97 14.5227C171.54 14.804 171.222 15.1193 171.018 15.4688L169.305 15.0597C169.612 14.4631 170.001 13.9815 170.474 13.6151C170.952 13.2443 171.474 12.9759 172.04 12.8097C172.607 12.6392 173.187 12.554 173.779 12.554C174.171 12.554 174.578 12.6009 175 12.6946C175.422 12.7841 175.805 12.9503 176.151 13.1932C176.5 13.4361 176.76 13.7834 176.93 14.2351C177.101 14.6825 177.126 15.2642 177.007 15.9801L175.927 22.5H174.06L174.29 21.1577H174.214C174.052 21.4048 173.826 21.6477 173.536 21.8864C173.251 22.125 172.901 22.3232 172.488 22.4808C172.075 22.6385 171.597 22.7173 171.056 22.7173ZM171.708 21.1832C172.241 21.1832 172.712 21.0788 173.121 20.87C173.534 20.6612 173.869 20.3885 174.124 20.0518C174.38 19.7109 174.54 19.3466 174.604 18.9588L174.815 17.6932C174.734 17.7614 174.591 17.8232 174.386 17.8786C174.186 17.9339 173.96 17.983 173.709 18.0256C173.457 18.0682 173.21 18.1044 172.967 18.1342C172.729 18.1641 172.531 18.1918 172.373 18.2173C171.998 18.2642 171.646 18.343 171.318 18.4538C170.994 18.5646 170.724 18.7244 170.506 18.9332C170.289 19.1378 170.153 19.4105 170.097 19.7514C170.021 20.2244 170.134 20.5824 170.436 20.8253C170.743 21.0639 171.167 21.1832 171.708 21.1832ZM185.365 22.5L184.112 12.6818H186.087L186.809 19.892H186.905L190.037 12.6818H192.012L192.728 19.8601H192.824L195.937 12.6818H197.912L193.393 22.5H191.444L190.625 15.4112H190.478L187.308 22.5H185.365ZM201.971 22.6982C201.038 22.6982 200.258 22.4851 199.632 22.0589C199.005 21.6286 198.564 21.0277 198.309 20.2564C198.057 19.4808 198.015 18.5795 198.181 17.5526C198.343 16.5469 198.669 15.669 199.159 14.919C199.653 14.169 200.271 13.5874 201.012 13.174C201.758 12.7607 202.587 12.554 203.499 12.554C204.432 12.554 205.21 12.7692 205.832 13.1996C206.458 13.63 206.9 14.233 207.155 15.0085C207.411 15.7841 207.456 16.6875 207.289 17.7188C207.127 18.7159 206.797 19.5895 206.299 20.3395C205.804 21.0852 205.186 21.6648 204.445 22.0781C203.703 22.4915 202.879 22.6982 201.971 22.6982ZM202.08 21.0938C202.694 21.0938 203.228 20.9318 203.684 20.608C204.145 20.2841 204.52 19.8537 204.809 19.3168C205.099 18.7798 205.297 18.1918 205.404 17.5526C205.502 16.9347 205.5 16.37 205.397 15.8587C205.299 15.343 205.086 14.9297 204.758 14.6186C204.43 14.3075 203.974 14.152 203.39 14.152C202.777 14.152 202.238 14.3161 201.773 14.6442C201.313 14.968 200.938 15.4006 200.648 15.9418C200.363 16.483 200.169 17.0732 200.066 17.7124C199.968 18.326 199.968 18.8906 200.066 19.4062C200.164 19.9176 200.377 20.3267 200.706 20.6335C201.034 20.9403 201.492 21.0938 202.08 21.0938ZM208.637 22.5L210.273 12.6818H212.12L211.858 14.2415H211.96C212.225 13.7131 212.61 13.2976 213.117 12.995C213.624 12.6882 214.166 12.5348 214.741 12.5348C214.865 12.5348 215.005 12.5391 215.163 12.5476C215.32 12.5518 215.448 12.5625 215.546 12.5795L215.24 14.4077C215.167 14.3864 215.035 14.3629 214.843 14.3374C214.651 14.3075 214.453 14.2926 214.249 14.2926C213.801 14.2926 213.386 14.3885 213.002 14.5803C212.619 14.7678 212.297 15.0298 212.037 15.3665C211.777 15.6989 211.609 16.0781 211.532 16.5043L210.548 22.5H208.637ZM219.664 9.40909L217.491 22.5H215.58L217.753 9.40909H219.664ZM223.725 22.6918C222.928 22.6918 222.253 22.4893 221.699 22.0845C221.149 21.6754 220.759 21.0937 220.529 20.3395C220.303 19.581 220.278 18.6712 220.452 17.6101C220.631 16.549 220.961 15.6413 221.443 14.8871C221.925 14.1328 222.508 13.5554 223.194 13.1548C223.881 12.7543 224.62 12.554 225.412 12.554C226.022 12.554 226.495 12.6562 226.831 12.8608C227.172 13.0611 227.424 13.2955 227.586 13.5639C227.748 13.8324 227.869 14.0689 227.95 14.2734H228.059L228.871 9.40909H230.782L228.608 22.5H226.742L227.004 20.9723H226.844C226.695 21.1811 226.488 21.4197 226.224 21.6882C225.964 21.9567 225.632 22.1911 225.227 22.3913C224.822 22.5916 224.322 22.6918 223.725 22.6918ZM224.371 21.0618C224.92 21.0618 225.412 20.9169 225.847 20.6271C226.286 20.3331 226.65 19.9261 226.94 19.4062C227.234 18.8864 227.439 18.2812 227.554 17.5909C227.669 16.9091 227.667 16.3125 227.547 15.8011C227.428 15.2898 227.198 14.8913 226.857 14.6058C226.516 14.3203 226.067 14.1776 225.508 14.1776C224.933 14.1776 224.432 14.3267 224.006 14.625C223.58 14.9233 223.231 15.3303 222.958 15.8459C222.689 16.3615 222.502 16.9432 222.395 17.5909C222.285 18.2472 222.28 18.8374 222.383 19.3615C222.485 19.8857 222.7 20.3011 223.028 20.608C223.356 20.9105 223.804 21.0618 224.371 21.0618ZM240.274 22.6982C239.341 22.6982 238.561 22.4851 237.934 22.0589C237.308 21.6286 236.867 21.0277 236.611 20.2564C236.36 19.4808 236.317 18.5795 236.483 17.5526C236.645 16.5469 236.971 15.669 237.461 14.919C237.956 14.169 238.574 13.5874 239.315 13.174C240.061 12.7607 240.89 12.554 241.802 12.554C242.735 12.554 243.513 12.7692 244.135 13.1996C244.761 13.63 245.202 14.233 245.458 15.0085C245.714 15.7841 245.758 16.6875 245.592 17.7188C245.43 18.7159 245.1 19.5895 244.601 20.3395C244.107 21.0852 243.489 21.6648 242.748 22.0781C242.006 22.4915 241.182 22.6982 240.274 22.6982ZM240.383 21.0938C240.996 21.0938 241.531 20.9318 241.987 20.608C242.447 20.2841 242.822 19.8537 243.112 19.3168C243.402 18.7798 243.6 18.1918 243.706 17.5526C243.805 16.9347 243.802 16.37 243.7 15.8587C243.602 15.343 243.389 14.9297 243.061 14.6186C242.733 14.3075 242.277 14.152 241.693 14.152C241.079 14.152 240.54 14.3161 240.076 14.6442C239.616 14.968 239.241 15.4006 238.951 15.9418C238.665 16.483 238.471 17.0732 238.369 17.7124C238.271 18.326 238.271 18.8906 238.369 19.4062C238.467 19.9176 238.68 20.3267 239.008 20.6335C239.336 20.9403 239.795 21.0938 240.383 21.0938ZM253.248 12.6818L252.999 14.2159H247.451L247.7 12.6818H253.248ZM247.585 22.5L249.413 11.544C249.507 10.9304 249.722 10.4212 250.059 10.0163C250.395 9.60724 250.802 9.30256 251.279 9.10227C251.757 8.89773 252.255 8.79545 252.775 8.79545C253.159 8.79545 253.48 8.82741 253.74 8.89134C254.005 8.95099 254.196 9.00639 254.316 9.05753L253.619 10.6044C253.534 10.5788 253.425 10.549 253.293 10.5149C253.161 10.4766 252.995 10.4574 252.794 10.4574C252.33 10.4574 251.978 10.5724 251.74 10.8026C251.505 11.0327 251.348 11.3651 251.267 11.7997L249.496 22.5H247.585ZM260.476 22.5L259.223 12.6818H261.198L261.921 19.892H262.017L265.149 12.6818H267.124L267.84 19.8601H267.936L271.048 12.6818H273.024L268.504 22.5H266.555L265.737 15.4112H265.59L262.419 22.5H260.476ZM273.201 22.5L274.837 12.6818H276.749L275.112 22.5H273.201ZM276.192 11.1477C275.86 11.1477 275.579 11.0369 275.349 10.8153C275.123 10.5895 275.018 10.321 275.036 10.0099C275.053 9.6946 275.185 9.42614 275.432 9.20455C275.679 8.97869 275.967 8.86577 276.295 8.86577C276.627 8.86577 276.906 8.97869 277.132 9.20455C277.358 9.42614 277.464 9.6946 277.452 10.0099C277.435 10.321 277.303 10.5895 277.055 10.8153C276.813 11.0369 276.525 11.1477 276.192 11.1477ZM280.56 16.6705L279.601 22.5H277.69L279.326 12.6818H281.161L280.892 14.2798H281.014C281.325 13.7557 281.749 13.3381 282.286 13.027C282.827 12.7116 283.466 12.554 284.203 12.554C284.868 12.554 285.426 12.6946 285.878 12.9759C286.334 13.2528 286.656 13.6662 286.843 14.2159C287.035 14.7656 287.065 15.4453 286.933 16.255L285.884 22.5H283.973L284.977 16.4851C285.092 15.7734 284.998 15.2173 284.695 14.8168C284.397 14.4119 283.922 14.2095 283.27 14.2095C282.827 14.2095 282.416 14.3054 282.036 14.4972C281.661 14.6889 281.344 14.9702 281.084 15.3409C280.828 15.7074 280.654 16.1506 280.56 16.6705ZM292.647 22.6982C291.684 22.6982 290.887 22.4915 290.257 22.0781C289.63 21.6605 289.191 21.0746 288.94 20.3203C288.688 19.5618 288.648 18.6733 288.818 17.6548C288.985 16.6491 289.319 15.7628 289.822 14.9957C290.325 14.2287 290.951 13.63 291.701 13.1996C292.455 12.7692 293.289 12.554 294.2 12.554C294.754 12.554 295.276 12.6456 295.767 12.8288C296.261 13.0121 296.681 13.2997 297.026 13.6918C297.371 14.0838 297.61 14.593 297.742 15.2195C297.878 15.8416 297.874 16.598 297.729 17.4886L297.62 18.1662H289.809L290.033 16.7344H295.965C296.054 16.2315 296.031 15.7862 295.894 15.3984C295.758 15.0064 295.524 14.6974 295.191 14.4716C294.863 14.2457 294.45 14.1328 293.951 14.1328C293.44 14.1328 292.963 14.267 292.519 14.5355C292.076 14.804 291.705 15.147 291.407 15.5646C291.113 15.978 290.928 16.4041 290.851 16.843L290.627 18.1534C290.517 18.8693 290.536 19.4446 290.685 19.8793C290.838 20.3139 291.107 20.6293 291.49 20.8253C291.874 21.0213 292.353 21.1193 292.928 21.1193C293.299 21.1193 293.642 21.0682 293.958 20.9659C294.277 20.8594 294.561 20.7038 294.808 20.4993C295.055 20.2905 295.262 20.0305 295.428 19.7195L297.179 20.0455C296.945 20.5781 296.608 21.0447 296.169 21.4453C295.73 21.8416 295.213 22.1506 294.616 22.3722C294.024 22.5895 293.367 22.6982 292.647 22.6982ZM309.287 12.6818V13.9602H304.199V12.6818H309.287ZM305.682 10.3295H307.191V19.6875C307.191 20.1136 307.252 20.4332 307.376 20.6463C307.504 20.8551 307.666 20.9957 307.862 21.0682C308.062 21.1364 308.273 21.1705 308.495 21.1705C308.661 21.1705 308.797 21.1619 308.904 21.1449C309.01 21.1236 309.096 21.1065 309.159 21.0938L309.466 22.4489C309.364 22.4872 309.221 22.5256 309.038 22.5639C308.855 22.6065 308.623 22.6278 308.341 22.6278C307.915 22.6278 307.498 22.5362 307.088 22.353C306.684 22.1697 306.347 21.8906 306.078 21.5156C305.814 21.1406 305.682 20.6676 305.682 20.0966V10.3295ZM315.44 22.7045C314.553 22.7045 313.776 22.4936 313.107 22.0717C312.442 21.6499 311.922 21.0597 311.547 20.3011C311.176 19.5426 310.991 18.6562 310.991 17.642C310.991 16.6193 311.176 15.7266 311.547 14.9638C311.922 14.201 312.442 13.6087 313.107 13.1868C313.776 12.7649 314.553 12.554 315.44 12.554C316.326 12.554 317.102 12.7649 317.766 13.1868C318.435 13.6087 318.955 14.201 319.326 14.9638C319.701 15.7266 319.888 16.6193 319.888 17.642C319.888 18.6562 319.701 19.5426 319.326 20.3011C318.955 21.0597 318.435 21.6499 317.766 22.0717C317.102 22.4936 316.326 22.7045 315.44 22.7045ZM315.44 21.3494C316.113 21.3494 316.667 21.1768 317.102 20.8317C317.536 20.4865 317.858 20.0327 318.067 19.4702C318.276 18.9077 318.38 18.2983 318.38 17.642C318.38 16.9858 318.276 16.3743 318.067 15.8075C317.858 15.2408 317.536 14.7827 317.102 14.4332C316.667 14.0838 316.113 13.9091 315.44 13.9091C314.766 13.9091 314.212 14.0838 313.778 14.4332C313.343 14.7827 313.021 15.2408 312.812 15.8075C312.604 16.3743 312.499 16.9858 312.499 17.642C312.499 18.2983 312.604 18.9077 312.812 19.4702C313.021 20.0327 313.343 20.4865 313.778 20.8317C314.212 21.1768 314.766 21.3494 315.44 21.3494ZM326.154 26.3864C325.426 26.3864 324.799 26.2926 324.275 26.1051C323.751 25.9219 323.314 25.679 322.965 25.3764C322.619 25.0781 322.345 24.7585 322.14 24.4176L323.342 23.5739C323.478 23.7528 323.651 23.9574 323.86 24.1875C324.068 24.4219 324.354 24.6243 324.716 24.7947C325.083 24.9695 325.562 25.0568 326.154 25.0568C326.947 25.0568 327.601 24.8651 328.117 24.4815C328.632 24.098 328.89 23.4972 328.89 22.679V20.6847H328.762C328.651 20.8636 328.494 21.0852 328.289 21.3494C328.089 21.6094 327.799 21.8416 327.42 22.0462C327.045 22.2464 326.538 22.3466 325.899 22.3466C325.106 22.3466 324.394 22.1591 323.764 21.7841C323.137 21.4091 322.641 20.8636 322.274 20.1477C321.912 19.4318 321.731 18.5625 321.731 17.5398C321.731 16.5341 321.908 15.6584 322.262 14.9126C322.615 14.1626 323.107 13.5831 323.738 13.174C324.369 12.7607 325.097 12.554 325.924 12.554C326.563 12.554 327.07 12.6605 327.445 12.8736C327.825 13.0824 328.115 13.321 328.315 13.5895C328.519 13.8537 328.677 14.071 328.788 14.2415H328.941V12.6818H330.399V22.7812C330.399 23.625 330.207 24.3111 329.823 24.8395C329.444 25.3722 328.933 25.7621 328.289 26.0092C327.65 26.2607 326.938 26.3864 326.154 26.3864ZM326.103 20.9915C326.708 20.9915 327.22 20.853 327.637 20.576C328.055 20.299 328.372 19.9006 328.59 19.3807C328.807 18.8608 328.916 18.2386 328.916 17.5142C328.916 16.8068 328.809 16.1825 328.596 15.6413C328.383 15.1001 328.068 14.6761 327.65 14.3693C327.232 14.0625 326.717 13.9091 326.103 13.9091C325.464 13.9091 324.931 14.071 324.505 14.3949C324.083 14.7187 323.766 15.1534 323.553 15.6989C323.344 16.2443 323.24 16.8494 323.24 17.5142C323.24 18.196 323.346 18.799 323.559 19.3232C323.776 19.843 324.096 20.2521 324.518 20.5504C324.944 20.8445 325.472 20.9915 326.103 20.9915ZM337.276 22.7045C336.33 22.7045 335.514 22.4957 334.828 22.0781C334.146 21.6562 333.62 21.0682 333.249 20.3139C332.883 19.5554 332.7 18.6733 332.7 17.6676C332.7 16.6619 332.883 15.7756 333.249 15.0085C333.62 14.2372 334.136 13.6364 334.796 13.206C335.461 12.7713 336.237 12.554 337.123 12.554C337.634 12.554 338.139 12.6392 338.638 12.8097C339.137 12.9801 339.59 13.2571 339.999 13.6406C340.409 14.0199 340.735 14.5227 340.977 15.1491C341.22 15.7756 341.342 16.5469 341.342 17.4631V18.1023H333.774V16.7983H339.808C339.808 16.2443 339.697 15.75 339.475 15.3153C339.258 14.8807 338.947 14.5376 338.542 14.2862C338.142 14.0348 337.669 13.9091 337.123 13.9091C336.522 13.9091 336.002 14.0582 335.563 14.3565C335.129 14.6506 334.794 15.0341 334.56 15.5071C334.325 15.9801 334.208 16.4872 334.208 17.0284V17.8977C334.208 18.6392 334.336 19.2678 334.592 19.7834C334.852 20.2947 335.212 20.6847 335.672 20.9531C336.132 21.2173 336.667 21.3494 337.276 21.3494C337.673 21.3494 338.031 21.294 338.35 21.1832C338.674 21.0682 338.953 20.8977 339.188 20.6719C339.422 20.4418 339.603 20.1562 339.731 19.8153L341.188 20.2244C341.035 20.7188 340.777 21.1534 340.415 21.5284C340.053 21.8991 339.605 22.1889 339.073 22.3977C338.54 22.6023 337.941 22.7045 337.276 22.7045ZM347.906 12.6818V13.9602H342.818V12.6818H347.906ZM344.301 10.3295H345.81V19.6875C345.81 20.1136 345.872 20.4332 345.995 20.6463C346.123 20.8551 346.285 20.9957 346.481 21.0682C346.681 21.1364 346.892 21.1705 347.114 21.1705C347.28 21.1705 347.416 21.1619 347.523 21.1449C347.629 21.1236 347.715 21.1065 347.779 21.0938L348.085 22.4489C347.983 22.4872 347.84 22.5256 347.657 22.5639C347.474 22.6065 347.242 22.6278 346.96 22.6278C346.534 22.6278 346.117 22.5362 345.708 22.353C345.303 22.1697 344.966 21.8906 344.698 21.5156C344.433 21.1406 344.301 20.6676 344.301 20.0966V10.3295ZM351.895 16.5938V22.5H350.387V9.40909H351.895V14.2159H352.023C352.253 13.7088 352.598 13.3061 353.058 13.0078C353.523 12.7053 354.141 12.554 354.912 12.554C355.581 12.554 356.167 12.6882 356.67 12.9567C357.173 13.2209 357.563 13.6278 357.84 14.1776C358.121 14.723 358.262 15.4176 358.262 16.2614V22.5H356.753V16.3636C356.753 15.5838 356.551 14.9808 356.146 14.5547C355.745 14.1243 355.189 13.9091 354.477 13.9091C353.983 13.9091 353.54 14.0135 353.148 14.2223C352.76 14.4311 352.453 14.7358 352.227 15.1364C352.006 15.5369 351.895 16.0227 351.895 16.5938ZM365.138 22.7045C364.192 22.7045 363.376 22.4957 362.69 22.0781C362.008 21.6562 361.482 21.0682 361.111 20.3139C360.744 19.5554 360.561 18.6733 360.561 17.6676C360.561 16.6619 360.744 15.7756 361.111 15.0085C361.482 14.2372 361.997 13.6364 362.658 13.206C363.322 12.7713 364.098 12.554 364.984 12.554C365.496 12.554 366.001 12.6392 366.499 12.8097C366.998 12.9801 367.452 13.2571 367.861 13.6406C368.27 14.0199 368.596 14.5227 368.839 15.1491C369.082 15.7756 369.203 16.5469 369.203 17.4631V18.1023H361.635V16.7983H367.669C367.669 16.2443 367.558 15.75 367.337 15.3153C367.119 14.8807 366.808 14.5376 366.403 14.2862C366.003 14.0348 365.53 13.9091 364.984 13.9091C364.384 13.9091 363.864 14.0582 363.425 14.3565C362.99 14.6506 362.656 15.0341 362.421 15.5071C362.187 15.9801 362.07 16.4872 362.07 17.0284V17.8977C362.07 18.6392 362.197 19.2678 362.453 19.7834C362.713 20.2947 363.073 20.6847 363.533 20.9531C363.994 21.2173 364.528 21.3494 365.138 21.3494C365.534 21.3494 365.892 21.294 366.212 21.1832C366.536 21.0682 366.815 20.8977 367.049 20.6719C367.283 20.4418 367.464 20.1562 367.592 19.8153L369.05 20.2244C368.896 20.7188 368.638 21.1534 368.276 21.5284C367.914 21.8991 367.467 22.1889 366.934 22.3977C366.401 22.6023 365.803 22.7045 365.138 22.7045ZM371.498 22.5V12.6818H372.955V14.1648H373.058C373.237 13.679 373.56 13.2848 374.029 12.9822C374.498 12.6797 375.026 12.5284 375.614 12.5284C375.725 12.5284 375.864 12.5305 376.03 12.5348C376.196 12.5391 376.322 12.5455 376.407 12.554V14.0881C376.356 14.0753 376.239 14.0561 376.055 14.0305C375.876 14.0007 375.687 13.9858 375.487 13.9858C375.009 13.9858 374.583 14.0859 374.208 14.2862C373.837 14.4822 373.543 14.755 373.326 15.1044C373.113 15.4496 373.006 15.8437 373.006 16.2869V22.5H371.498Z" fill="#FFFEF7"/>
</svg>
