<svg width="181" height="22" viewBox="0 0 181 22" fill="none" xmlns="http://www.w3.org/2000/svg">
<path d="M4.02838 0.636363L9.69599 17.2216H9.92468L15.5923 0.636363H18.9133L11.5852 21H8.03548L0.707352 0.636363H4.02838ZM30.5265 0.636363V21H27.454V0.636363H30.5265ZM57.037 0.636363V21H54.2131L43.8623 6.06534H43.6733V21H40.6009V0.636363H43.4446L53.8054 15.5909H53.9944V0.636363H57.037ZM78.2254 5.98579C78.1193 5.04451 77.6818 4.31534 76.9129 3.79829C76.144 3.27462 75.1762 3.01278 74.0095 3.01278C73.1743 3.01278 72.4517 3.14536 71.8419 3.41051C71.232 3.66903 70.7581 4.02699 70.42 4.48438C70.0886 4.93513 69.9228 5.44886 69.9228 6.02557C69.9228 6.50947 70.0355 6.92708 70.2609 7.27841C70.4929 7.62973 70.7945 7.92472 71.1657 8.16335C71.5436 8.39536 71.9479 8.59091 72.3788 8.75C72.8097 8.90246 73.224 9.02841 73.6217 9.12784L75.6103 9.64489C76.26 9.80398 76.9262 10.0194 77.6089 10.2912C78.2917 10.563 78.9247 10.9209 79.5081 11.3651C80.0914 11.8092 80.562 12.3594 80.92 13.0156C81.2846 13.6719 81.4669 14.4574 81.4669 15.3722C81.4669 16.5256 81.1686 17.5497 80.572 18.4446C79.982 19.3395 79.1236 20.0455 77.9967 20.5625C76.8764 21.0795 75.5208 21.3381 73.9299 21.3381C72.4053 21.3381 71.0862 21.0961 69.9726 20.6122C68.8589 20.1283 67.9872 19.4422 67.3575 18.554C66.7278 17.6591 66.3798 16.5985 66.3135 15.3722H69.3958C69.4555 16.108 69.6941 16.7211 70.1118 17.2116C70.536 17.6955 71.0762 18.0568 71.7325 18.2955C72.3954 18.5275 73.1212 18.6435 73.9101 18.6435C74.7784 18.6435 75.5507 18.5076 76.2268 18.2358C76.9096 17.9574 77.4465 17.5729 77.8376 17.0824C78.2287 16.5852 78.4243 16.0052 78.4243 15.3423C78.4243 14.7391 78.2519 14.2453 77.9072 13.8608C77.5691 13.4763 77.1084 13.1581 76.5251 12.9062C75.9484 12.6544 75.2955 12.4323 74.5663 12.2401L72.1601 11.5838C70.5294 11.1397 69.2368 10.4867 68.2822 9.625C67.3343 8.76326 66.8603 7.62311 66.8603 6.20454C66.8603 5.03125 67.1785 4.0071 67.8149 3.1321C68.4512 2.2571 69.313 1.57765 70.4001 1.09375C71.4872 0.603219 72.7136 0.357954 74.0791 0.357954C75.4579 0.357954 76.6743 0.599905 77.7282 1.08381C78.7888 1.56771 79.6241 2.2339 80.2339 3.08239C80.8438 3.92424 81.1619 4.89204 81.1885 5.98579H78.2254ZM92.2945 21H89.0331L96.3613 0.636363H99.911L107.239 21H103.978L98.2206 4.33523H98.0615L92.2945 21ZM92.8414 13.0256H103.421V15.6108H92.8414V13.0256ZM115.427 0.636363L121.094 17.2216H121.323L126.991 0.636363H130.312L122.984 21H119.434L112.106 0.636363H115.427ZM140.632 0.636363L146.3 17.2216H146.529L152.196 0.636363H155.517L148.189 21H144.639L137.311 0.636363H140.632ZM162.487 0.636363H165.977L171.297 9.89347H171.515L176.835 0.636363H180.325L172.937 13.0057V21H169.875V13.0057L162.487 0.636363Z" fill="#470417"/>
</svg>
