<svg width="40" height="40" viewBox="0 0 40 40" fill="none" xmlns="http://www.w3.org/2000/svg">
<path d="M34.5 19.985C34.5 11.7125 28.004 5 20 5C11.996 5 5.5 11.7125 5.5 19.985C5.5 24.5413 7.501 28.6475 10.633 31.4037C10.662 31.4338 10.691 31.4338 10.691 31.4638C10.952 31.6737 11.213 31.8837 11.503 32.0938C11.648 32.1838 11.764 32.3019 11.909 32.4219C14.3062 34.1005 17.1342 34.9984 20.029 35C22.9238 34.9984 25.7518 34.1005 28.149 32.4219C28.294 32.3319 28.41 32.2138 28.555 32.1219C28.816 31.9137 29.106 31.7038 29.367 31.4937C29.396 31.4638 29.425 31.4637 29.425 31.4338C32.499 28.6456 34.5 24.5413 34.5 19.985ZM20 33.1119C17.274 33.1119 14.78 32.2119 12.721 30.7137C12.75 30.4737 12.808 30.2356 12.866 29.9956C13.0394 29.3454 13.2928 28.7209 13.62 28.1375C13.939 27.5675 14.316 27.0575 14.78 26.6075C15.215 26.1575 15.737 25.7394 16.259 25.4094C16.81 25.0794 17.39 24.8394 18.028 24.6594C18.6712 24.4812 19.3342 24.391 20 24.3913C21.977 24.3758 23.8815 25.1604 25.307 26.5775C25.974 27.2675 26.496 28.0769 26.873 29.0056C27.076 29.5456 27.221 30.115 27.308 30.7137C25.1678 32.2703 22.6162 33.1076 20 33.1119ZM15.563 19.2369C15.308 18.6315 15.1795 17.9772 15.186 17.3169C15.186 16.6587 15.302 15.9987 15.563 15.3988C15.824 14.7987 16.172 14.2606 16.607 13.8106C17.042 13.3606 17.564 13.0025 18.144 12.7325C18.724 12.4625 19.362 12.3425 20 12.3425C20.667 12.3425 21.276 12.4625 21.856 12.7325C22.436 13.0025 22.958 13.3625 23.393 13.8106C23.828 14.2606 24.176 14.8006 24.437 15.3988C24.698 15.9987 24.814 16.6587 24.814 17.3169C24.814 18.0069 24.698 18.6369 24.437 19.235C24.1866 19.8269 23.8326 20.366 23.393 20.825C22.9491 21.2791 22.4281 21.6446 21.856 21.9031C20.6574 22.4116 19.3136 22.4116 18.115 21.9031C17.5429 21.6446 17.0219 21.2791 16.578 20.825C16.138 20.3725 15.7925 19.8332 15.563 19.2369ZM29.019 29.1856C29.019 29.1256 28.99 29.0956 28.99 29.0356C28.7053 28.0968 28.2849 27.208 27.743 26.3994C27.2007 25.5848 26.5348 24.8662 25.771 24.2712C25.1875 23.817 24.5549 23.4344 23.886 23.1313C24.1889 22.9216 24.4706 22.681 24.727 22.4131C25.1594 21.9716 25.5391 21.4781 25.858 20.9431C26.5025 19.8525 26.8343 18.595 26.815 17.3169C26.8245 16.3709 26.6468 15.4329 26.293 14.5606C25.9441 13.72 25.4419 12.9567 24.814 12.3125C24.1855 11.677 23.4478 11.1683 22.639 10.8125C21.7945 10.4466 20.8865 10.2635 19.971 10.2744C19.0554 10.2641 18.1474 10.4478 17.303 10.8144C16.4853 11.1658 15.7453 11.6857 15.128 12.3425C14.5104 12.9893 14.0183 13.7524 13.678 14.5906C13.3242 15.4629 13.1465 16.4009 13.156 17.3469C13.156 18.0069 13.243 18.6362 13.417 19.235C13.591 19.865 13.823 20.435 14.142 20.9731C14.432 21.5131 14.838 21.9931 15.273 22.4431C15.534 22.7131 15.824 22.9525 16.143 23.1612C15.4711 23.4707 14.8381 23.8636 14.258 24.3313C13.504 24.9313 12.837 25.6494 12.286 26.4294C11.7391 27.2349 11.3183 28.1246 11.039 29.0656C11.01 29.1256 11.01 29.1856 11.01 29.2156C8.719 26.8175 7.298 23.5812 7.298 19.985C7.298 12.7625 13.011 6.85812 20 6.85812C26.989 6.85812 32.702 12.7625 32.702 19.985C32.6982 23.4349 31.374 26.7429 29.019 29.1856Z" fill="#470417"/>
</svg>
