<svg width="30" height="30" viewBox="0 0 30 30" fill="none" xmlns="http://www.w3.org/2000/svg">
<path d="M29.5 14.985C29.5 6.7125 23.004 0 15 0C6.996 0 0.5 6.7125 0.5 14.985C0.5 19.5413 2.501 23.6475 5.633 26.4037C5.662 26.4338 5.691 26.4338 5.691 26.4638C5.952 26.6737 6.213 26.8837 6.503 27.0938C6.648 27.1838 6.764 27.3019 6.909 27.4219C9.30622 29.1005 12.1342 29.9984 15.029 30C17.9238 29.9984 20.7518 29.1005 23.149 27.4219C23.294 27.3319 23.41 27.2138 23.555 27.1219C23.816 26.9137 24.106 26.7038 24.367 26.4937C24.396 26.4638 24.425 26.4637 24.425 26.4338C27.499 23.6456 29.5 19.5413 29.5 14.985ZM15 28.1119C12.274 28.1119 9.78 27.2119 7.721 25.7137C7.75 25.4737 7.808 25.2356 7.866 24.9956C8.03937 24.3454 8.29278 23.7209 8.62 23.1375C8.939 22.5675 9.316 22.0575 9.78 21.6075C10.215 21.1575 10.737 20.7394 11.259 20.4094C11.81 20.0794 12.39 19.8394 13.028 19.6594C13.6712 19.4812 14.3342 19.391 15 19.3913C16.977 19.3758 18.8815 20.1604 20.307 21.5775C20.974 22.2675 21.496 23.0769 21.873 24.0056C22.076 24.5456 22.221 25.115 22.308 25.7137C20.1678 27.2703 17.6162 28.1076 15 28.1119ZM10.563 14.2369C10.308 13.6315 10.1795 12.9772 10.186 12.3169C10.186 11.6587 10.302 10.9987 10.563 10.3988C10.824 9.79875 11.172 9.26062 11.607 8.81063C12.042 8.36062 12.564 8.0025 13.144 7.7325C13.724 7.4625 14.362 7.3425 15 7.3425C15.667 7.3425 16.276 7.4625 16.856 7.7325C17.436 8.0025 17.958 8.3625 18.393 8.81063C18.828 9.26062 19.176 9.80062 19.437 10.3988C19.698 10.9987 19.814 11.6587 19.814 12.3169C19.814 13.0069 19.698 13.6369 19.437 14.235C19.1866 14.8269 18.8326 15.366 18.393 15.825C17.9491 16.2791 17.4281 16.6446 16.856 16.9031C15.6574 17.4116 14.3136 17.4116 13.115 16.9031C12.5429 16.6446 12.0219 16.2791 11.578 15.825C11.138 15.3725 10.7925 14.8332 10.563 14.2369ZM24.019 24.1856C24.019 24.1256 23.99 24.0956 23.99 24.0356C23.7053 23.0968 23.2849 22.208 22.743 21.3994C22.2007 20.5848 21.5348 19.8662 20.771 19.2712C20.1875 18.817 19.5549 18.4344 18.886 18.1313C19.1889 17.9216 19.4706 17.681 19.727 17.4131C20.1594 16.9716 20.5391 16.4781 20.858 15.9431C21.5025 14.8525 21.8343 13.595 21.815 12.3169C21.8245 11.3709 21.6468 10.4329 21.293 9.56063C20.9441 8.71997 20.4419 7.9567 19.814 7.3125C19.1855 6.67697 18.4478 6.16827 17.639 5.8125C16.7945 5.4466 15.8865 5.26346 14.971 5.27437C14.0554 5.26406 13.1474 5.44783 12.303 5.81437C11.4853 6.1658 10.7453 6.68573 10.128 7.3425C9.51045 7.98932 9.01826 8.75242 8.678 9.59062C8.32416 10.4629 8.14652 11.4009 8.156 12.3469C8.156 13.0069 8.243 13.6362 8.417 14.235C8.591 14.865 8.823 15.435 9.142 15.9731C9.432 16.5131 9.838 16.9931 10.273 17.4431C10.534 17.7131 10.824 17.9525 11.143 18.1612C10.4711 18.4707 9.83811 18.8636 9.258 19.3313C8.504 19.9313 7.837 20.6494 7.286 21.4294C6.73912 22.2349 6.3183 23.1246 6.039 24.0656C6.01 24.1256 6.01 24.1856 6.01 24.2156C3.719 21.8175 2.298 18.5812 2.298 14.985C2.298 7.7625 8.011 1.85812 15 1.85812C21.989 1.85812 27.702 7.7625 27.702 14.985C27.6982 18.4349 26.374 21.7429 24.019 24.1856Z" fill="#470417"/>
</svg>
