<svg width="17" height="30" viewBox="0 0 17 30" fill="none" xmlns="http://www.w3.org/2000/svg">
<path d="M0.450251 15.9049L14.3828 29.1799C14.6152 29.4015 14.9241 29.5251 15.2453 29.5251C15.5664 29.5251 15.8753 29.4015 16.1077 29.1799L16.1228 29.1649C16.2358 29.0575 16.3259 28.9282 16.3874 28.7848C16.449 28.6415 16.4807 28.4871 16.4807 28.3312C16.4807 28.1752 16.449 28.0208 16.3874 27.8775C16.3259 27.7342 16.2358 27.6048 16.1228 27.4974L3.00275 14.9974L16.1228 2.50241C16.2358 2.39498 16.3259 2.26566 16.3874 2.12233C16.449 1.97899 16.4807 1.82464 16.4807 1.66866C16.4807 1.51267 16.449 1.35832 16.3874 1.21499C16.3259 1.07166 16.2358 0.942341 16.1228 0.834908L16.1077 0.819908C15.8753 0.598295 15.5664 0.474667 15.2453 0.474667C14.9241 0.474667 14.6152 0.598295 14.3828 0.819908L0.450251 14.0949C0.32772 14.2116 0.230172 14.3521 0.16352 14.5076C0.0968684 14.6632 0.0625 14.8307 0.0625 14.9999C0.0625 15.1691 0.0968684 15.3366 0.16352 15.4922C0.230172 15.6478 0.32772 15.7882 0.450251 15.9049Z" fill="#470417"/>
</svg>
