<svg width="40" height="40" viewBox="0 0 40 40" fill="none" xmlns="http://www.w3.org/2000/svg">
<path d="M10.4503 20.9049L24.3828 34.1799C24.6152 34.4015 24.9241 34.5251 25.2453 34.5251C25.5664 34.5251 25.8753 34.4015 26.1077 34.1799L26.1228 34.1649C26.2358 34.0575 26.3259 33.9282 26.3874 33.7848C26.449 33.6415 26.4807 33.4871 26.4807 33.3312C26.4807 33.1752 26.449 33.0208 26.3874 32.8775C26.3259 32.7342 26.2358 32.6048 26.1228 32.4974L13.0028 19.9974L26.1228 7.50241C26.2358 7.39498 26.3259 7.26566 26.3874 7.12233C26.449 6.97899 26.4807 6.82464 26.4807 6.66866C26.4807 6.51267 26.449 6.35832 26.3874 6.21499C26.3259 6.07166 26.2358 5.94234 26.1228 5.83491L26.1077 5.81991C25.8753 5.5983 25.5664 5.47467 25.2453 5.47467C24.9241 5.47467 24.6152 5.5983 24.3828 5.81991L10.4503 19.0949C10.3277 19.2116 10.2302 19.3521 10.1635 19.5076C10.0969 19.6632 10.0625 19.8307 10.0625 19.9999C10.0625 20.1691 10.0969 20.3366 10.1635 20.4922C10.2302 20.6478 10.3277 20.7882 10.4503 20.9049Z" fill="#470417"/>
</svg>
