<svg width="40" height="40" viewBox="0 0 40 40" fill="none" xmlns="http://www.w3.org/2000/svg">
<path d="M32.4001 13.2283H28.8334L26.8167 5.71168C26.7545 5.50254 26.6143 5.32533 26.425 5.21674C26.2358 5.10816 26.012 5.0765 25.8 5.12834C25.6941 5.15533 25.5947 5.20331 25.5077 5.26944C25.4206 5.33556 25.3477 5.41848 25.2933 5.51329C25.2389 5.6081 25.2041 5.71287 25.191 5.82138C25.1778 5.92989 25.1866 6.03994 25.2167 6.14501L27.1167 13.2283H12.9001L14.8001 6.14501C14.8276 6.03885 14.8339 5.9283 14.8187 5.8197C14.8034 5.71109 14.7669 5.60656 14.7111 5.51211C14.6554 5.41766 14.5815 5.33514 14.4938 5.26929C14.4061 5.20343 14.3063 5.15553 14.2001 5.12834C13.9882 5.07777 13.765 5.10997 13.576 5.21838C13.3871 5.32679 13.2466 5.50323 13.1834 5.71168L11.1834 13.2283H7.60005C6.99031 13.2378 6.40505 13.4698 5.95444 13.8807C5.50383 14.2916 5.21895 14.853 5.1534 15.4593C5.08786 16.0656 5.24618 16.675 5.59856 17.1727C5.95094 17.6704 6.47309 18.0221 7.06672 18.1617L8.30005 31.1117C8.39193 32.1476 8.8694 33.1112 9.63794 33.8119C10.4065 34.5125 11.4101 34.8991 12.4501 34.895H27.5501C28.59 34.8991 29.5936 34.5125 30.3622 33.8119C31.1307 33.1112 31.6082 32.1476 31.7001 31.1117L32.9334 18.1617C33.527 18.0221 34.0492 17.6704 34.4015 17.1727C34.7539 16.675 34.9122 16.0656 34.8467 15.4593C34.7812 14.853 34.4963 14.2916 34.0457 13.8807C33.595 13.4698 33.0098 13.2378 32.4001 13.2283ZM30.0501 30.9617C29.9918 31.5835 29.7029 32.161 29.2402 32.5804C28.7775 32.9999 28.1746 33.2311 27.5501 33.2283H12.4501C11.8255 33.2311 11.2226 32.9999 10.7599 32.5804C10.2972 32.161 10.0083 31.5835 9.95005 30.9617L8.75005 18.2283H31.25L30.0501 30.9617ZM32.4001 16.5617H7.60005C7.38037 16.5574 7.17088 16.4682 7.01552 16.3129C6.86015 16.1575 6.77098 15.948 6.76672 15.7283C6.76672 15.5073 6.85451 15.2954 7.01079 15.1391C7.16707 14.9828 7.37904 14.895 7.60005 14.895H32.4001C32.6211 14.895 32.833 14.9828 32.9893 15.1391C33.1456 15.2954 33.2334 15.5073 33.2334 15.7283C33.2291 15.948 33.1399 16.1575 32.9846 16.3129C32.8292 16.4682 32.6197 16.5574 32.4001 16.5617Z" fill="#470417"/>
<path d="M15.8333 29.0534C15.6123 29.0534 15.4004 28.9656 15.2441 28.8093C15.0878 28.653 15 28.4411 15 28.2201V23.2201C15 22.999 15.0878 22.7871 15.2441 22.6308C15.4004 22.4745 15.6123 22.3867 15.8333 22.3867C16.0543 22.3867 16.2663 22.4745 16.4226 22.6308C16.5789 22.7871 16.6667 22.999 16.6667 23.2201V28.2201C16.6667 28.4411 16.5789 28.653 16.4226 28.8093C16.2663 28.9656 16.0543 29.0534 15.8333 29.0534ZM24.1667 29.0534C23.9457 29.0534 23.7337 28.9656 23.5774 28.8093C23.4211 28.653 23.3333 28.4411 23.3333 28.2201V23.2201C23.3333 22.999 23.4211 22.7871 23.5774 22.6308C23.7337 22.4745 23.9457 22.3867 24.1667 22.3867C24.3877 22.3867 24.5996 22.4745 24.7559 22.6308C24.9122 22.7871 25 22.999 25 23.2201V28.2201C25 28.4411 24.9122 28.653 24.7559 28.8093C24.5996 28.9656 24.3877 29.0534 24.1667 29.0534Z" fill="#470417"/>
</svg>
